#Comment line ignore any data following # character 
#Hierarchical Translation and Rotation (.htr) file 
[Header]	
#Header keywords are followed by a single value 
FileType HTR		#Single word string
DataType HTRS		#Translation followed by rotation and scale data
FileVersion 1		#integer
NumSegments 64		#integer
NumFrames 2		#integer
DataFrameRate 30		#integer, data frame rate in this file
EulerRotationOrder ZYX
CalibrationUnits mm
RotationUnits Degrees
GlobalAxisofGravity Y
BoneLengthAxis Y
ScaleFactor 1.00
[SegmentNames&Hierarchy]
#CHILD	PARENT
Pinger_Root GLOBAL
Pelvis Pinger_Root
L_Hip Pelvis
R_Hip Pelvis
Rear_Leg01 Pelvis
Spine1 Pelvis
L_Leg01 L_Hip
L_Leg02 L_Leg01
L_Leg03 L_Leg02
L_Foot L_Leg03
L_Toe1_01 L_Foot
L_Toe2_01 L_Foot
L_Toe3_01 L_Foot
planeAlignerLeft L_Foot
L_Toe1_02 L_Toe1_01
L_Toe1_03 L_Toe1_02
L_Toe2_02 L_Toe2_01
L_Toe2_03 L_Toe2_02
L_Toe3_02 L_Toe3_01
L_Toe3_03 L_Toe3_02
planeLockWeightLeft planeAlignerLeft
R_Leg01 R_Hip
R_Leg02 R_Leg01
R_Leg03 R_Leg02
R_Foot R_Leg03
planeAlignerRight R_Foot
R_Toe1_01 R_Foot
R_Toe2_01 R_Foot
R_Toe3_01 R_Foot
planeLockWeightRight planeAlignerRight
R_Toe1_02 R_Toe1_01
R_Toe1_03 R_Toe1_02
R_Toe2_02 R_Toe2_01
R_Toe2_03 R_Toe2_02
R_Toe3_02 R_Toe3_01
R_Toe3_03 R_Toe3_02
Rear_Leg02 Rear_Leg01
Rear_Leg03 Rear_Leg02
Rear_Leg04 Rear_Leg03
Rear_Foot Rear_Leg04
planeAlignerCenter Rear_Foot
Rear_Toe1_01 Rear_Foot
Rear_Toe2_01 Rear_Foot
Rear_Toe3_01 Rear_Foot
planeLockWeightCenter planeAlignerCenter
Rear_Toe1_02 Rear_Toe1_01
Rear_Toe1_03 Rear_Toe1_02
Rear_Toe2_02 Rear_Toe2_01
Rear_Toe2_03 Rear_Toe2_02
Rear_Toe3_02 Rear_Toe3_01
Rear_Toe3_03 Rear_Toe3_02
Back_Bone Spine1
Head Spine1
Motor_Bone Back_Bone
Ping_Mechanism Back_Bone
BN_LookIK Head
bottomMouth Head
L_Mouth01 Head
L_mouthFront Head
mouthGun Head
R_Mouth01 Head
R_mouthFront Head
TopMouth Head
weapon_bone Head
[BasePosition]
#SegmentName Tx, Ty, Tz, Rx, Ry, Rz, BoneLength
Pinger_Root 0.000000 0.000000 0.000000 -90.000000 0.000000 0.000000 10.000000 
Pelvis 0.000000 0.000000 0.000000 0.000000 0.000000 0.000000 10.000000 
L_Hip 0.000000 0.000000 0.000000 0.000000 0.000000 0.000000 10.000000 
R_Hip 0.000000 0.000000 0.000000 0.000000 0.000000 0.000000 10.000000 
Rear_Leg01 0.000000 0.000000 0.000000 0.000000 0.000000 0.000000 10.000000 
Spine1 0.000000 0.000000 0.000000 0.000000 0.000000 0.000000 10.000000 
L_Leg01 0.000000 0.000000 0.000000 0.000000 0.000000 0.000000 10.000000 
L_Leg02 0.000000 0.000000 0.000000 0.000000 0.000000 0.000000 10.000000 
L_Leg03 0.000000 0.000000 0.000000 0.000000 0.000000 0.000000 10.000000 
L_Foot 0.000000 0.000000 0.000000 0.000000 0.000000 0.000000 10.000000 
L_Toe1_01 0.000000 0.000000 0.000000 0.000000 0.000000 0.000000 10.000000 
L_Toe2_01 0.000000 0.000000 0.000000 0.000000 0.000000 0.000000 10.000000 
L_Toe3_01 0.000000 0.000000 0.000000 0.000000 0.000000 0.000000 10.000000 
planeAlignerLeft 0.000000 0.000000 0.000000 0.000000 0.000000 0.000000 10.000000 
L_Toe1_02 0.000000 0.000000 0.000000 0.000000 0.000000 0.000000 10.000000 
L_Toe1_03 0.000000 0.000000 0.000000 0.000000 0.000000 0.000000 10.000000 
L_Toe2_02 0.000000 0.000000 0.000000 0.000000 0.000000 0.000000 10.000000 
L_Toe2_03 0.000000 0.000000 0.000000 0.000000 0.000000 0.000000 10.000000 
L_Toe3_02 0.000000 0.000000 0.000000 0.000000 0.000000 0.000000 10.000000 
L_Toe3_03 0.000000 0.000000 0.000000 0.000000 0.000000 0.000000 10.000000 
planeLockWeightLeft 0.000000 0.000000 0.000000 0.000000 0.000000 0.000000 10.000000 
R_Leg01 0.000000 0.000000 0.000000 0.000000 0.000000 0.000000 10.000000 
R_Leg02 0.000000 0.000000 0.000000 0.000000 0.000000 0.000000 10.000000 
R_Leg03 0.000000 0.000000 0.000000 0.000000 0.000000 0.000000 10.000000 
R_Foot 0.000000 0.000000 0.000000 0.000000 0.000000 0.000000 10.000000 
planeAlignerRight 0.000000 0.000000 0.000000 0.000000 0.000000 0.000000 10.000000 
R_Toe1_01 0.000000 0.000000 0.000000 0.000000 0.000000 0.000000 10.000000 
R_Toe2_01 0.000000 0.000000 0.000000 0.000000 0.000000 0.000000 10.000000 
R_Toe3_01 0.000000 0.000000 0.000000 0.000000 0.000000 0.000000 10.000000 
planeLockWeightRight 0.000000 0.000000 0.000000 0.000000 0.000000 0.000000 10.000000 
R_Toe1_02 0.000000 0.000000 0.000000 0.000000 0.000000 0.000000 10.000000 
R_Toe1_03 0.000000 0.000000 0.000000 0.000000 0.000000 0.000000 10.000000 
R_Toe2_02 0.000000 0.000000 0.000000 0.000000 0.000000 0.000000 10.000000 
R_Toe2_03 0.000000 0.000000 0.000000 0.000000 0.000000 0.000000 10.000000 
R_Toe3_02 0.000000 0.000000 0.000000 0.000000 0.000000 0.000000 10.000000 
R_Toe3_03 0.000000 0.000000 0.000000 0.000000 0.000000 0.000000 10.000000 
Rear_Leg02 0.000000 0.000000 0.000000 0.000000 0.000000 0.000000 10.000000 
Rear_Leg03 0.000000 0.000000 0.000000 0.000000 0.000000 0.000000 10.000000 
Rear_Leg04 0.000000 0.000000 0.000000 0.000000 0.000000 0.000000 10.000000 
Rear_Foot 0.000000 0.000000 0.000000 0.000000 0.000000 0.000000 10.000000 
planeAlignerCenter 0.000000 0.000000 0.000000 0.000000 0.000000 0.000000 10.000000 
Rear_Toe1_01 0.000000 0.000000 0.000000 0.000000 0.000000 0.000000 10.000000 
Rear_Toe2_01 0.000000 0.000000 0.000000 0.000000 0.000000 0.000000 10.000000 
Rear_Toe3_01 0.000000 0.000000 0.000000 0.000000 0.000000 0.000000 10.000000 
planeLockWeightCenter 0.000000 0.000000 0.000000 0.000000 0.000000 0.000000 10.000000 
Rear_Toe1_02 0.000000 0.000000 0.000000 0.000000 0.000000 0.000000 10.000000 
Rear_Toe1_03 0.000000 0.000000 0.000000 0.000000 0.000000 0.000000 10.000000 
Rear_Toe2_02 0.000000 0.000000 0.000000 0.000000 0.000000 0.000000 10.000000 
Rear_Toe2_03 0.000000 0.000000 0.000000 0.000000 0.000000 0.000000 10.000000 
Rear_Toe3_02 0.000000 0.000000 0.000000 0.000000 0.000000 0.000000 10.000000 
Rear_Toe3_03 0.000000 0.000000 0.000000 0.000000 0.000000 0.000000 10.000000 
Back_Bone 0.000000 0.000000 0.000000 0.000000 0.000000 0.000000 10.000000 
Head 0.000000 0.000000 0.000000 0.000000 0.000000 0.000000 10.000000 
Motor_Bone 0.000000 0.000000 0.000000 0.000000 0.000000 0.000000 10.000000 
Ping_Mechanism 0.000000 0.000000 0.000000 0.000000 0.000000 0.000000 10.000000 
BN_LookIK 0.000000 0.000000 0.000000 0.000000 0.000000 0.000000 10.000000 
bottomMouth 0.000000 0.000000 0.000000 0.000000 0.000000 0.000000 10.000000 
L_Mouth01 0.000000 0.000000 0.000000 0.000000 0.000000 0.000000 10.000000 
L_mouthFront 0.000000 0.000000 0.000000 0.000000 0.000000 0.000000 10.000000 
mouthGun 0.000000 0.000000 0.000000 0.000000 0.000000 0.000000 10.000000 
R_Mouth01 0.000000 0.000000 0.000000 0.000000 0.000000 0.000000 10.000000 
R_mouthFront 0.000000 0.000000 0.000000 0.000000 0.000000 0.000000 10.000000 
TopMouth 0.000000 0.000000 0.000000 0.000000 0.000000 0.000000 10.000000 
weapon_bone 0.000000 0.000000 0.000000 0.000000 0.000000 0.000000 10.000000 
#Beginning of Data. Separated by tabs
#Fr	Tx	Ty	Tz	Rx	Ry	Rz	SF
[Pinger_Root]
14 0.000000 0.000000 0.000000 -0.000075 -0.000000 -0.000020 0.000000
15 0.000000 0.000000 0.000000 -0.000075 -0.000000 -0.000020 0.000000
[Pelvis]
14 -165.331390 -210.544495 4054.743652 -175.511200 -83.896004 161.776932 4063.571045
15 -161.818649 -182.817291 4047.918701 -169.832993 -83.494431 156.913086 4055.274658
[L_Hip]
14 5.766392 125.831482 872.656799 160.158691 -45.484894 122.312202 881.701050
15 5.766392 125.831482 872.656799 160.158691 -45.484909 122.312202 881.701050
[R_Hip]
14 5.765438 125.836372 -872.654907 38.087841 49.812698 125.703735 881.699829
15 5.765438 125.836372 -872.654907 38.087841 49.812687 125.703735 881.699829
[Rear_Leg01]
14 -192.298416 -925.602966 -0.001907 170.867340 8.185049 -144.672867 945.367432
15 -192.298416 -925.602966 -0.001907 170.465744 7.006560 -146.458282 945.367432
[Spine1]
14 290.604584 5.007505 0.000477 12.798115 2.285919 12.987257 290.647736
15 290.604584 5.007505 0.000477 12.366954 2.529912 13.455977 290.647736
[L_Leg01]
14 761.932007 -0.002384 -0.069261 20.979088 -21.213701 13.687306 761.932068
15 761.932007 -0.002384 -0.069261 19.843048 -21.646761 15.378262 761.932068
[L_Leg02]
14 1441.140503 -0.000954 -0.000715 0.553869 -0.111927 -127.053650 1441.140503
15 1441.140503 -0.000954 -0.000715 0.709246 -0.156867 -128.153427 1441.140503
[L_Leg03]
14 1686.963989 -0.000715 -0.000954 0.023614 -0.008731 103.814789 1686.963989
15 1686.963989 -0.000715 -0.000954 0.022302 -0.009781 103.984573 1686.963989
[L_Foot]
14 3041.570068 -30.715107 11.297464 0.548230 7.190843 42.759281 3041.746094
15 3041.570068 -30.715107 11.297464 1.132104 6.331413 42.944836 3041.746094
[L_Toe1_01]
14 -188.216690 -224.732346 -21.137953 94.621368 -20.846260 178.389069 293.899567
15 -188.216690 -224.732346 -21.137953 94.621361 -20.846258 178.389069 293.899567
[L_Toe2_01]
14 200.746536 -219.926590 148.838394 -103.114754 -23.047394 -32.408371 332.896027
15 200.746536 -219.926590 148.838394 -103.114754 -23.047394 -32.408371 332.896027
[L_Toe3_01]
14 188.832520 -219.859131 -191.078659 -105.774963 27.009623 -55.716061 347.140900
15 188.832520 -219.859131 -191.078659 -105.774963 27.009623 -55.716061 347.140900
[planeAlignerLeft]
14 0.812531 -811.448792 -0.314951 0.000000 -90.000000 -90.001900 811.449280
15 0.812531 -811.448792 -0.314951 0.000000 -90.000000 -90.001900 811.449280
[L_Toe1_02]
14 413.761139 0.000477 0.000000 0.001661 0.070897 0.001661 413.761139
15 413.761139 0.000477 0.000000 0.001661 0.070897 0.001661 413.761139
[L_Toe1_03]
14 464.317322 0.000358 -0.000089 0.001673 -0.448396 -0.003292 464.317322
15 464.317322 0.000358 -0.000089 0.001673 -0.448396 -0.003292 464.317322
[L_Toe2_02]
14 342.235809 -0.000477 0.000238 0.001179 -79.324585 0.001179 342.235809
15 342.235809 -0.000477 0.000238 0.001179 -79.319992 0.001179 342.235809
[L_Toe2_03]
14 420.210846 -0.000715 0.000000 -179.998642 68.908218 -179.995087 420.210846
15 420.210846 -0.000715 0.000000 -179.998642 68.908211 -179.995087 420.210846
[L_Toe3_02]
14 329.270111 0.000954 0.000000 0.004675 -84.726791 0.004675 329.270111
15 329.270111 0.000954 0.000000 0.004675 -84.723488 0.004675 329.270111
[L_Toe3_03]
14 439.137451 -0.001907 0.000954 179.993240 43.140900 -179.999146 439.137451
15 439.137451 -0.001907 0.000954 179.993240 43.140900 -179.999146 439.137451
[planeLockWeightLeft]
14 -0.000954 0.000238 -0.000305 -0.011826 -0.004376 0.005620 0.001029
15 -0.000954 0.000238 -0.000305 -0.011826 -0.004376 0.005620 0.001029
[R_Leg01]
14 761.455627 -0.001907 -0.000358 105.671432 -36.457645 34.602825 761.455688
15 761.455627 -0.001907 -0.000358 106.121315 -36.063679 34.105801 761.455688
[R_Leg02]
14 1441.140625 0.000000 -0.000238 0.941835 -0.236579 -105.200249 1441.140625
15 1441.140625 0.000000 -0.000238 0.851697 -0.203366 -106.094261 1441.140625
[R_Leg03]
14 1686.963989 0.000954 0.001431 -0.014460 0.005679 106.868950 1686.963989
15 1686.963989 0.000954 0.001431 -0.007504 0.004714 107.789864 1686.963989
[R_Foot]
14 3041.560059 -30.531288 -11.204481 11.288004 -36.707939 32.684448 3041.734131
15 3041.560059 -30.531288 -11.204481 11.712086 -37.271313 32.922348 3041.734131
[planeAlignerRight]
14 -0.635147 -812.270569 -0.364304 0.000000 -89.960434 -90.005180 812.270874
15 -0.635147 -812.270569 -0.364304 0.000000 -89.960434 -90.005180 812.270874
[R_Toe1_01]
14 -188.383347 -224.864899 21.052242 78.327164 0.810639 -176.062744 294.101532
15 -188.383347 -224.864899 21.052242 78.327164 0.810639 -176.062744 294.101532
[R_Toe2_01]
14 200.637817 -220.002121 -148.787384 -94.913536 45.204365 -40.768372 332.857574
15 200.637817 -220.002121 -148.787384 -94.913536 45.204365 -40.768372 332.857574
[R_Toe3_01]
14 188.606735 -220.092957 191.126343 -77.777176 -16.659966 -55.221588 347.192566
15 188.606735 -220.092957 191.126343 -77.777176 -16.659966 -55.221592 347.192566
[planeLockWeightRight]
14 -0.000477 0.000000 0.000000 -0.011823 -0.004379 -0.000027 0.000477
15 -0.000477 0.000000 0.000000 -0.011823 -0.004379 -0.000027 0.000477
[R_Toe1_02]
14 413.762085 0.000477 -0.000119 0.001534 -9.820698 0.001534 413.762085
15 413.762085 0.000477 -0.000119 0.001534 -9.820508 0.001534 413.762085
[R_Toe1_03]
14 464.317810 0.000000 0.001088 0.001388 9.997776 -0.003176 464.317810
15 464.317810 0.000000 0.001088 0.001388 9.997586 -0.003176 464.317810
[R_Toe2_02]
14 342.234741 -0.000954 0.000238 -0.002332 -79.833969 -0.002332 342.234741
15 342.234741 -0.000954 0.000238 -0.002332 -79.833969 -0.002332 342.234741
[R_Toe2_03]
14 420.210846 0.000715 -0.000268 -179.995636 64.198990 -179.999222 420.210846
15 420.210846 0.000715 -0.000268 -179.995636 64.198975 -179.999222 420.210846
[R_Toe3_02]
14 329.270355 -0.000477 -0.000954 0.001175 -84.673584 0.001175 329.270355
15 329.270355 -0.000477 -0.000954 0.001175 -84.671562 0.001175 329.270355
[R_Toe3_03]
14 439.137939 0.000238 0.001431 -179.997650 45.533474 -179.990097 439.137939
15 439.137939 0.000238 0.001431 -179.997650 45.533459 -179.990097 439.137939
[Rear_Leg02]
14 1162.777710 -0.029802 0.005960 2.437812 -1.763406 -135.310791 1162.777710
15 1162.777710 -0.029802 0.005960 2.422501 -1.778584 -137.060211 1162.777710
[Rear_Leg03]
14 607.192505 -0.013351 -0.073195 0.010058 -0.005916 77.284790 607.192505
15 607.192505 -0.013351 -0.073195 0.010064 -0.005905 77.160316 607.192505
[Rear_Leg04]
14 995.874512 -0.020504 -0.011921 -0.043216 -0.017238 90.664024 995.874573
15 995.874512 -0.020504 -0.011921 -0.043147 -0.017409 90.212082 995.874573
[Rear_Foot]
14 3096.176270 -0.067472 -0.041425 -29.393671 84.037437 143.684967 3096.176270
15 3096.176270 -0.067472 -0.041425 -32.007618 84.516808 142.003708 3096.176270
[planeAlignerCenter]
14 0.350077 0.966311 -838.790894 0.000009 0.000003 -179.999985 838.791565
15 0.350077 0.966311 -838.790894 0.000009 0.000003 -179.999985 838.791565
[Rear_Toe1_01]
14 0.653352 83.966492 -371.173737 0.520419 22.855207 96.957321 380.553192
15 0.653352 83.966492 -371.173737 0.499350 22.852863 96.344391 380.553192
[Rear_Toe2_01]
14 178.200760 -294.826019 -362.060547 -8.849858 20.708097 -59.495430 499.765686
15 178.200760 -294.826019 -362.060547 -8.843923 20.709423 -60.254017 499.765686
[Rear_Toe3_01]
14 -153.359680 -308.780914 -362.060852 3.988331 20.177004 -104.468086 499.952881
15 -153.359680 -308.780914 -362.060852 3.993826 20.180681 -105.209480 499.952881
[planeLockWeightCenter]
14 -0.000062 0.000238 0.000000 -0.011814 -0.004373 -0.000015 0.000246
15 -0.000062 0.000238 0.000000 -0.011814 -0.004373 -0.000015 0.000246
[Rear_Toe1_02]
14 379.707825 0.194073 0.000477 -0.002640 -33.272049 -0.002640 379.707855
15 379.707825 0.194073 0.000477 -0.002640 -33.271370 -0.002640 379.707855
[Rear_Toe1_03]
14 500.129700 0.165701 0.000119 -0.008942 83.837639 -0.012443 500.129761
15 500.129700 0.165701 0.000119 -0.008965 83.850883 -0.012466 500.129761
[Rear_Toe2_02]
14 340.494507 0.000238 -0.000954 0.001188 -71.987152 0.001188 340.494507
15 340.494507 0.000238 -0.000954 0.001188 -72.035393 0.001188 340.494507
[Rear_Toe2_03]
14 433.103577 0.000000 0.000238 0.008052 73.237289 0.008052 433.103546
15 433.103577 0.000000 0.000238 0.008055 73.244972 0.008055 433.103546
[Rear_Toe3_02]
14 340.494141 -0.000358 -0.000477 0.001195 -68.041512 0.001195 340.494171
15 340.494141 -0.000358 -0.000477 0.001195 -68.111900 0.001195 340.494171
[Rear_Toe3_03]
14 433.103577 0.001431 -0.000238 0.002400 67.100922 0.000617 433.103546
15 433.103577 0.001431 -0.000238 0.004182 67.264099 0.003291 433.103546
[Back_Bone]
14 1312.175781 -701.934692 0.000954 -1.569290 3.433581 -89.008224 1488.125488
15 1312.175781 -701.934692 0.000954 -1.333061 3.895260 -87.412796 1488.125488
[Head]
14 1406.159424 809.709290 0.001431 11.730539 1.418197 6.564717 1622.625488
15 1406.159424 809.709290 0.001431 11.142634 1.423567 6.798496 1622.625488
[Motor_Bone]
14 1158.364380 -417.834747 0.000477 -0.000105 0.000046 -105.985291 1231.419434
15 1158.364380 -417.834747 0.000477 -0.000105 0.000046 -105.985291 1231.419434
[Ping_Mechanism]
14 1210.881714 -430.295349 -28.234594 0.000103 -0.000053 82.120995 1285.373779
15 1211.609497 -430.198853 -29.474560 0.000103 -0.000053 82.120995 1286.054932
[BN_LookIK]
14 193.241119 1380.371704 -0.002861 0.000000 89.965736 -31.038179 1393.832153
15 193.241119 1380.371704 -0.002861 0.000000 89.965736 -31.038179 1393.832153
[bottomMouth]
14 -435.092926 615.759399 -0.000954 -0.000022 0.000016 73.527184 753.966492
15 -435.092926 615.759399 -0.000954 -0.000022 0.000016 73.527184 753.966492
[L_Mouth01]
14 554.440979 7.658243 838.222046 150.204178 23.759130 109.605339 1005.027161
15 554.440979 7.658243 838.222046 150.204178 23.759130 109.605339 1005.027161
[L_mouthFront]
14 551.629089 934.514771 339.150421 0.000081 2.804060 79.119301 1136.941284
15 551.629089 934.514771 339.150421 0.000081 2.804060 79.119301 1136.941284
[mouthGun]
14 55.332661 1627.420898 0.000000 0.000023 0.000009 -11.038128 1628.361328
15 55.332661 1627.420898 0.000000 0.000023 0.000009 -11.038128 1628.361328
[R_Mouth01]
14 554.442383 7.659197 -838.223938 29.795891 -23.759109 109.605331 1005.029541
15 554.442383 7.659197 -838.223938 29.795891 -23.759109 109.605331 1005.029541
[R_mouthFront]
14 551.629089 934.514282 -339.151367 0.000029 -2.803930 79.119133 1136.941162
15 551.629089 934.514282 -339.151367 0.000029 -2.803930 79.119133 1136.941162
[TopMouth]
14 461.269867 -56.106091 -0.008583 -0.000059 -0.000268 92.025169 464.669525
15 461.269867 -56.106091 -0.008583 -0.000059 -0.000268 92.025169 464.669525
[weapon_bone]
14 -987.239868 1448.372803 0.001431 0.000000 89.965736 -31.038221 1752.833740
15 -987.239868 1448.372803 0.001431 0.000000 89.965736 -31.038221 1752.833740
